<?xml version="1.0" encoding="utf-8"?>
<!-- Generator: Adobe Illustrator 16.0.0, SVG Export Plug-In . SVG Version: 6.00 Build 0)  -->
<!DOCTYPE svg PUBLIC "-//W3C//DTD SVG 1.1//EN" "http://www.w3.org/Graphics/SVG/1.1/DTD/svg11.dtd">
<svg version="1.1" id="Layer_1" xmlns="http://www.w3.org/2000/svg" xmlns:xlink="http://www.w3.org/1999/xlink" x="0px" y="0px"
	 width="147.293px" height="37.77px" viewBox="0 0 147.293 37.77" enable-background="new 0 0 147.293 37.77" xml:space="preserve">
<path fill-rule="evenodd" clip-rule="evenodd" d="M37.146,21.373c-0.295,0.349-0.615,0.683-0.948,0.993
	c-0.364,0.336-0.778,0.594-0.98,1.104c-0.145,0.363-0.35,0.702-0.438,1.094c-0.104,0.472-0.216,0.944-0.352,1.412
	c-0.601,2.08-0.94,4.205-1.087,6.363c-0.019,0.284-0.123,0.581,0.238,0.781c0.309,0.172,0.563,0.439,0.863,0.631
	c0.295,0.186,0.623,0.319,0.926,0.497c0.312,0.183,0.536,0.453,0.672,0.789c0.041,0.094,0.028,0.24,0.096,0.287
	c0.12,0.096,0.235,0.183,0.147,0.33c-0.101,0.161-0.188,0.377-0.456,0.347c-0.142-0.017-0.287-0.019-0.429-0.035
	c-0.26-0.025-0.522-0.055-0.798-0.085c0.178,0.591,0.063,0.915-0.47,1.134c-0.306,0.125-0.658,0.188-0.988,0.186
	c-0.694-0.012-1.324-0.301-1.957-0.554c-0.497-0.197-0.819-0.552-0.967-1.055c-0.086-0.289-0.159-0.596-0.175-0.893
	c-0.023-0.407-0.105-0.74-0.493-0.965c-0.198-0.109-0.435-0.284-0.5-0.481c-0.166-0.526-0.271-1.076-0.355-1.628
	c-0.071-0.469,0.024-0.98-0.125-1.414c-0.304-0.888-0.294-1.764-0.168-2.663c0.066-0.447,0.122-0.9,0.184-1.368
	c-0.088,0-0.142-0.003-0.192,0c-1.512,0.205-3.027,0.278-4.553,0.227c-0.293-0.011-0.608,0.041-0.89,0.139
	c-1.293,0.46-2.58,0.948-3.874,1.412c-0.198,0.071-0.298,0.181-0.348,0.388c-0.199,0.82-0.417,1.637-0.626,2.454
	c-0.209,0.811-0.411,1.619-0.622,2.449c0.1,0.027,0.184,0.052,0.268,0.071c0.733,0.177,1.364,0.52,1.8,1.152
	c0.064,0.088,0.091,0.263,0.043,0.35c-0.035,0.065-0.216,0.047-0.338,0.069c-0.043,0.051-0.103,0.198-0.184,0.209
	c-0.493,0.076-0.967,0.284-1.485,0.172c-0.226-0.052-0.468-0.037-0.694-0.089c-0.425-0.103-0.851-0.206-1.264-0.348
	c-0.291-0.101-0.556-0.268-0.835-0.404c-0.263-0.131-0.567-0.216-0.785-0.401c-0.822-0.696-1.512-1.514-2.036-2.458
	c-0.248-0.442-0.216-0.912,0.057-1.336c0.218-0.339,0.495-0.636,0.74-0.959c0.075-0.098,0.168-0.204,0.182-0.319
	c0.058-0.464,0.09-0.937,0.126-1.365c-0.238,0.093-0.515,0.172-0.765,0.304c-0.146,0.078-0.327,0.213-0.358,0.354
	c-0.195,0.831-0.35,1.672-0.518,2.506c-0.144,0.71-0.298,1.414-0.831,1.958c-0.22,0.227-0.444,0.445-0.674,0.661
	c-0.549,0.521-1.167,0.98-1.92,1.09c-0.894,0.131-1.808,0.142-2.714,0.183c-0.481,0.021-0.964,0.002-1.478,0.002
	c0.041,0.104,0.06,0.22,0.118,0.299c0.252,0.336,0.522,0.66,0.771,1c0.054,0.071,0.111,0.209,0.08,0.265
	c-0.039,0.064-0.175,0.079-0.271,0.106c-0.065,0.024-0.136,0.032-0.206,0.052c-0.218,0.058-0.434,0.145-0.654,0.158
	c-0.188,0.011-0.381-0.057-0.571-0.096c-1.06-0.208-1.582-0.357-1.78-1.453c-0.041-0.213-0.048-0.429-0.077-0.641
	c-0.136-0.995,0.016-1.981,0.086-2.964c0.036-0.462,0.168-0.915,0.231-1.378c0.052-0.37,0.068-0.745,0.091-1.119
	c0.006-0.104-0.048-0.218-0.021-0.317c0.03-0.101,0.101-0.236,0.187-0.272c0.562-0.216,1.136-0.399,1.702-0.606
	c0.108-0.041,0.224-0.112,0.294-0.202c0.576-0.74,1.151-1.483,1.705-2.236c0.281-0.383,0.52-0.792,0.778-1.191
	c0.245-0.385,0.495-0.771,0.74-1.158c0.066-0.104,0.129-0.216,0.166-0.33c0.254-0.836,0.481-1.678,0.753-2.505
	c0.403-1.223,1.117-2.191,2.367-2.675c0.15-0.057,0.302-0.119,0.45-0.184c0.542-0.238,1.119-0.422,1.62-0.73
	c1.38-0.852,2.876-1.396,4.446-1.746c1.607-0.356,3.225-0.653,4.822-1.032c3.121-0.747,6.146-1.777,9.054-3.141
	c0.2-0.096,0.317-0.214,0.386-0.436c0.324-1.042,0.778-2.016,1.57-2.796c0.043-0.043,0.08-0.1,0.1-0.157
	c0.23-0.583,0.602-1.071,1.056-1.487c1.108-1.01,1.72-2.28,2.056-3.715c0.106-0.463,0.246-0.921,0.407-1.367
	c0.112-0.317,0.325-0.358,0.549-0.102c0.2,0.233,0.38,0.506,0.486,0.792c0.186,0.485,0.295,1.001,0.451,1.498
	c0.071,0.221,0.186,0.427,0.278,0.641c0.033,0,0.063,0,0.099,0c0.549-0.788,1.106-1.571,1.644-2.365
	c0.118-0.168,0.227-0.206,0.363-0.061c0.093,0.1,0.183,0.222,0.216,0.35c0.058,0.206,0.093,0.424,0.09,0.638
	c-0.014,0.81-0.052,1.618-0.068,2.428c0,0.079,0.038,0.199,0.098,0.233c0.71,0.422,1.03,1.08,1.172,1.854
	c0.033,0.184,0.068,0.373,0.128,0.547c0.172,0.483,0.439,0.878,0.958,1.06c0.123,0.043,0.224,0.147,0.331,0.229
	c0.413,0.309,0.806,0.635,1.232,0.926c0.59,0.408,0.645,0.997,0.066,1.437c-0.459,0.345-0.951,0.652-1.445,0.942
	c-0.781,0.458-1.579,0.408-2.371,0.009c-0.208-0.102-0.413-0.197-0.637-0.306c-0.164,0.397-0.328,0.755-0.458,1.125
	c-0.162,0.456-0.353,0.912-0.429,1.382c-0.167,1.066-0.271,2.143-0.401,3.212c-0.093,0.751-0.177,1.502-0.284,2.249
	c-0.052,0.377-0.178,0.743-0.465,1.011c-0.101,0.096-0.259,0.133-0.439,0.221C37.507,20.832,37.354,21.124,37.146,21.373z
	 M6.083,32.284c0.465-0.345,0.636-0.855,0.713-1.401c0.024-0.183,0.041-0.371,0.065-0.599c-0.115,0.044-0.197,0.071-0.274,0.107
	c-0.631,0.292-1.276,0.532-1.975,0.604c-0.367,0.036-0.82,0.517-0.904,0.882c-0.04,0.178-0.158,0.336-0.185,0.511
	c-0.032,0.221-0.007,0.456-0.007,0.721C4.485,33.035,5.343,32.831,6.083,32.284z"/>
<g>
	<path d="M51.067,17.572h-2.542V1.539h2.771c3.023,0,3.848,2.932,3.848,7.901C55.145,14.938,53.885,17.572,51.067,17.572z
		 M51.182,3.531h-0.596v12.07h0.55c1.191,0,1.901-1.351,1.901-6.161C53.037,4.86,52.442,3.531,51.182,3.531z"/>
	<path d="M60.208,17.823c-2.794,0-3.436-2.978-3.436-8.222c0-5.268,0.618-8.314,3.458-8.314c2.863,0,3.504,3.092,3.504,8.222
		C63.735,14.777,63.117,17.823,60.208,17.823z M60.208,3.348c-1.008,0-1.329,1.306-1.329,6.138c0,4.947,0.389,6.275,1.397,6.275
		c0.985,0,1.352-1.305,1.352-6.138C61.628,4.677,61.193,3.348,60.208,3.348z"/>
	<path d="M68.891,17.823c-2.955,0-3.504-3.252-3.504-8.268c0-5.451,0.687-8.268,3.481-8.268c2.199,0,3.092,1.878,3.229,4.558
		L70.036,6.12c-0.115-1.81-0.413-2.771-1.168-2.771c-1.03,0-1.374,1.123-1.374,6.207c0,4.466,0.298,6.229,1.443,6.229
		c0.893,0,1.306-0.756,1.306-2.726V11.25h-1.375V9.258h3.39v3.665C72.257,15.419,71.525,17.823,68.891,17.823z"/>
	<path d="M82.04,3.554v14.017h-2.061V3.554h-2.268V1.539h6.596v2.015H82.04z"/>
	<path d="M90.47,17.572l-1.512-7.214H88.02v7.214h-2.062V1.539h2.908c1.947,0,3.551,0.985,3.551,4.329
		c0,1.924-0.55,3.207-1.512,3.894l1.694,7.81H90.47z M88.867,3.486H88.02v4.993h0.732c0.985,0,1.58-0.687,1.58-2.497
		C90.333,4.127,89.875,3.486,88.867,3.486z"/>
	<path d="M98.949,17.572l-0.527-3.848h-2.198l-0.504,3.848h-2.084l2.61-16.032h2.245l2.588,16.032H98.949z M97.551,7.265
		c-0.092-0.756-0.183-1.466-0.252-2.222c-0.068,0.756-0.16,1.466-0.252,2.245l-0.572,4.443h1.672L97.551,7.265z"/>
	<path d="M102.798,17.572V1.539h2.062v16.032H102.798z"/>
	<path d="M112.716,17.572l-1.9-5.955c-0.436-1.374-1.123-3.71-1.466-4.993c0,1.26,0.045,3.596,0.045,4.764v6.184h-1.946V1.539h1.946
		l1.673,5.176c0.297,0.917,0.87,2.817,1.19,4.1c0-1.146-0.022-3.229-0.022-4.077V1.539h1.946v16.032H112.716z"/>
	<path d="M116.772,17.572V1.539h2.062v16.032H116.772z"/>
	<path d="M126.69,17.572l-1.9-5.955c-0.436-1.374-1.123-3.71-1.466-4.993c0,1.26,0.045,3.596,0.045,4.764v6.184h-1.946V1.539h1.946
		l1.673,5.176c0.297,0.917,0.87,2.817,1.19,4.1c0-1.146-0.022-3.229-0.022-4.077V1.539h1.946v16.032H126.69z"/>
	<path d="M133.747,17.823c-2.955,0-3.505-3.252-3.505-8.268c0-5.451,0.688-8.268,3.481-8.268c2.199,0,3.092,1.878,3.229,4.558
		l-2.062,0.275c-0.114-1.81-0.412-2.771-1.168-2.771c-1.03,0-1.374,1.123-1.374,6.207c0,4.466,0.298,6.229,1.443,6.229
		c0.893,0,1.305-0.756,1.305-2.726V11.25h-1.374V9.258h3.39v3.665C137.113,15.419,136.38,17.823,133.747,17.823z"/>
	<path d="M51.365,28.74h-0.779v6.917h-2.061V19.625h2.932c1.947,0,3.527,1.122,3.527,4.443C54.984,27.344,53.312,28.74,51.365,28.74
		z M51.434,21.572h-0.848v5.223h0.733c0.985,0,1.581-0.802,1.581-2.611C52.9,22.327,52.442,21.572,51.434,21.572z"/>
	<path d="M61.284,35.657l-1.511-7.215h-0.939v7.215h-2.061V19.625h2.909c1.947,0,3.55,0.984,3.55,4.328
		c0,1.925-0.549,3.207-1.511,3.894l1.695,7.811H61.284z M59.681,21.572h-0.848v4.993h0.733c0.985,0,1.581-0.687,1.581-2.496
		C61.147,22.213,60.689,21.572,59.681,21.572z"/>
	<path d="M65.432,35.657V19.625h5.588v2.016h-3.527v4.558h2.726v2.016h-2.726v5.428h3.802v2.016H65.432z"/>
	<path d="M75.719,35.909c-1.969,0-3.115-1.397-3.367-4.146l1.993-0.32c0.206,1.786,0.688,2.336,1.374,2.336
		c0.733,0,1.1-0.481,1.1-1.466c0-1.512-0.504-2.336-2.084-4.283c-1.283-1.604-2.268-3.206-2.268-5.039
		c0-2.015,1.031-3.618,3.069-3.618c2.084,0,2.932,1.534,3.229,3.642l-1.97,0.435c-0.229-1.351-0.573-1.992-1.237-1.992
		c-0.642,0-1.008,0.458-1.008,1.489c0,1.122,0.436,1.9,1.695,3.458c1.58,1.946,2.634,3.688,2.634,5.726
		C78.88,34.283,77.712,35.909,75.719,35.909z"/>
	<path d="M83.465,35.909c-1.97,0-3.115-1.397-3.367-4.146l1.993-0.32c0.206,1.786,0.687,2.336,1.374,2.336
		c0.732,0,1.1-0.481,1.1-1.466c0-1.512-0.504-2.336-2.085-4.283c-1.282-1.604-2.267-3.206-2.267-5.039
		c0-2.015,1.03-3.618,3.068-3.618c2.084,0,2.932,1.534,3.229,3.642l-1.97,0.435c-0.229-1.351-0.572-1.992-1.236-1.992
		c-0.642,0-1.008,0.458-1.008,1.489c0,1.122,0.435,1.9,1.694,3.458c1.581,1.946,2.634,3.688,2.634,5.726
		C86.625,34.283,85.458,35.909,83.465,35.909z"/>
</g>
</svg>
